inDegrees=no
num_controls=7
num_derivatives=13
num_iterations=86
num_multipliers=7
num_parameters=0
num_slacks=7
num_states=26
objective=0.333899
objective_accelerations=0.037530
objective_balance=0.001341
objective_effort=0.027412
objective_height=0.266143
objective_ligament=0.001473
solver_duration=901.520156
status=Solve_Succeeded
success=true
DataType=double
version=3
OpenSimVersion=4.5
endheader
time	/jointset/ground_pelvis/pelvis_tilt/value	/jointset/ground_pelvis/pelvis_tx/value	/jointset/ground_pelvis/pelvis_ty/value	/jointset/hip_r/hip_flexion_r/value	/jointset/hip_r/hip_adduction_r/value	/jointset/hip_r/hip_rotation_r/value	/jointset/back/lumbar_extension/value	/jointset/patellofemoral_r/patellar_flexion_r/value	/jointset/knee_r/knee_flexion_r/value	/jointset/knee_r/knee_adduction_r/value	/jointset/knee_r/knee_rotation_r/value	/jointset/ankle_r/ankle_angle_r/value	/jointset/subtalar_r/subtalar_angle_r/value	/jointset/ground_pelvis/pelvis_tilt/speed	/jointset/ground_pelvis/pelvis_tx/speed	/jointset/ground_pelvis/pelvis_ty/speed	/jointset/hip_r/hip_flexion_r/speed	/jointset/hip_r/hip_adduction_r/speed	/jointset/hip_r/hip_rotation_r/speed	/jointset/back/lumbar_extension/speed	/jointset/patellofemoral_r/patellar_flexion_r/speed	/jointset/knee_r/knee_flexion_r/speed	/jointset/knee_r/knee_adduction_r/speed	/jointset/knee_r/knee_rotation_r/speed	/jointset/ankle_r/ankle_angle_r/speed	/jointset/subtalar_r/subtalar_angle_r/speed	/forceset/tau_hip_flexion_r	/forceset/tau_hip_adduction_r	/forceset/tau_hip_rotation_r	/forceset/tau_knee_flexion_r	/forceset/tau_ankle_angle_r	/forceset/tau_subtalar_angle_r	/forceset/tau_lumbar_extension	lambda_cid13_p0	lambda_cid14_p0	lambda_cid14_p1	lambda_cid14_p2	lambda_cid14_p3	lambda_cid14_p4	lambda_cid14_p5	/jointset/ground_pelvis/pelvis_tilt/accel	/jointset/ground_pelvis/pelvis_tx/accel	/jointset/ground_pelvis/pelvis_ty/accel	/jointset/hip_r/hip_flexion_r/accel	/jointset/hip_r/hip_adduction_r/accel	/jointset/hip_r/hip_rotation_r/accel	/jointset/back/lumbar_extension/accel	/jointset/patellofemoral_r/patellar_flexion_r/accel	/jointset/knee_r/knee_flexion_r/accel	/jointset/knee_r/knee_adduction_r/accel	/jointset/knee_r/knee_rotation_r/accel	/jointset/ankle_r/ankle_angle_r/accel	/jointset/subtalar_r/subtalar_angle_r/accel	gamma_cid13_p0	gamma_cid14_p0	gamma_cid14_p1	gamma_cid14_p2	gamma_cid14_p3	gamma_cid14_p4	gamma_cid14_p5
1	-0.2846504476459523	-0.009956369529808596	0.6281704177456442	1.484235899477639	-0.2374476654096522	-0.08443471642463589	-0.7853834491108286	1.516162404190805	1.516162404190728	-0.1744938473261064	0.1713096470156653	0.4362431689129263	0.1773328509551647	0.06997541696163216	0.006114098646511147	0.01680329719269704	-0.1042461153256217	-0.001477520886906943	0.001434542975184246	-0.0005736364323444169	-0.02012565367827169	-0.02012565367827199	0.009065253858515265	0.0001649340675313727	0.01352446022598234	0.004175899870721512	-0.3637250268366711	0.04313463156986044	0.007014939229955937	-0.433207504636251	-0.04471768181898798	0.002717014910728185	0.373193366945566	-0.04094116315007003	-66.3404811151767	-14.78363483414934	7.745193352669758	7.838090782217791	-771.1382812895216	56.43289327050949	1.409842894441439	0.1628299875847188	1.839234699915571	-5.600997994240692	0.1998608856872973	-0.3509999669233981	-0.04453932840620014	-4.977508422030878	-4.977508422030826	0.9926490745539992	0.05900698646901936	-0.9731959390021325	-0.1177144070178435	2.013643091735784e-09	-1.726363341973052e-09	1.236585191169982e-08	1.133376896863103e-08	6.782297165090522e-09	-9.116798236458265e-09	2.545219836672664e-08
1.01	-0.2838809969625095	-0.00988693664573757	0.6284304170886913	1.482913886715999	-0.2374525493885327	-0.08443524577938265	-0.7853893500652447	1.515712326909196	1.515712326909173	-0.1743506764147367	0.1713140229504943	0.4363298168289358	0.1773684960665363	0.08390271261139087	0.007791395665498202	0.03520968327050934	-0.1601976323795546	0.0004962989522583086	-0.001529121495772722	-0.0004774807063672306	-0.06992644019063957	-0.06992644019063919	0.01959819194181548	0.0007126422149152963	0.003817826283901494	0.00295083932361932	-0.3645207316433007	0.04323161133007509	0.007121691359404718	-0.4335767244391452	-0.04476476936557931	0.002663191724022316	0.3742909947425848	-0.04094196750134581	-66.41772593443086	-14.82959179460066	7.762865096177136	7.607839959835791	-772.1482623552434	56.45067761971431	1.382374274205652	0.1730186910516015	1.843303741580486	-5.598405863075522	0.1954853089098234	-0.2673520561826276	0.05605408572425137	-4.986860888330292	-4.986860888330234	1.088004782186651	0.05302488403252369	-0.9674925526338088	-0.1252317700273915	7.397852660211159e-09	3.764426287744101e-09	4.120505214415807e-08	5.028775937213393e-08	7.529156370633671e-09	-1.790220607604082e-08	9.30068311012373e-08
1.02	-0.2829726330477738	-0.009800162965077418	0.6288748729284899	1.481031123323401	-0.2374378266138435	-0.0844650722526409	-0.7853904172499332	1.514763142337964	1.51476314233799	-0.1741012984011054	0.1713239503978317	0.436319779319662	0.1773918245941431	0.09775806321965019	0.009582257964336996	0.05369459654296035	-0.2163962415177298	0.002443829826566739	-0.004424880726758455	0.0003931175245860755	-0.1199471116026289	-0.1199471116026288	0.03030667430385595	0.001275236568676008	-0.005812624891087794	0.001712583117679756	-0.3653164364499303	0.04332859109030037	0.007228443488772985	-0.4339459442420479	-0.04481185691216832	0.002609368537339569	0.3753886225396044	-0.04094891110100236	-66.50177605863527	-14.8710370911626	7.7733027101085	7.37439686430077	-773.278281134105	56.50708645271828	1.395453886141565	0.1855430435550615	1.85494013884331	-5.650416411089137	0.1946030927159431	-0.3374189189292031	0.1103491725890572	-5.021485401955164	-5.021485401955299	1.027757930301981	0.06198422774436455	-0.9579593855838259	-0.120353538785301	1.312750291227241e-08	1.432867844841761e-08	7.442329543230311e-08	9.549005765692999e-08	-1.431387356795294e-09	-2.309877537129324e-08	1.709461321526833e-07
1.03	-0.281926357474299	-0.009694974901752229	0.6295043978526894	1.47858584572677	-0.2374037581098893	-0.08452357011616526	-0.785378399968615	1.513312863784388	1.513312863784431	-0.1737440696045861	0.1713395846263799	0.4362136008561087	0.1774025981900822	0.1114560055439176	0.01146821866342077	0.07220625313734705	-0.2726293272897066	0.004365707485222995	-0.007267770777008166	0.002191266898246265	-0.1701243327274692	-0.1701243327274677	0.04115816650222368	0.001854250360572997	-0.01543209642419599	0.0004293637701162837	-0.3660870748002797	0.04346628768936481	0.007340751888251592	-0.4335064858410441	-0.04559293128265523	0.002623913474287495	0.3764390539628506	-0.04096970484076102	-66.78922271276417	-14.8942018302101	7.75318231390935	7.411870980279806	-773.9332311428669	56.49996211014702	1.350813160962587	0.1920500246295996	1.848652462795392	-5.60525687042706	0.1903736865125636	-0.2566743924969666	0.2416870430955891	-5.018204316750057	-5.018204316749767	1.11670348592784	0.05629411927363136	-0.9652952871452631	-0.1341882861401801	1.886067806926821e-08	2.494470063491724e-08	1.076862228332613e-07	1.407561141854127e-07	-1.049098621619342e-08	-2.825872386507289e-08	2.489913992073634e-07
1.04	-0.2807443327265015	-0.009570541743127239	0.6303189141514446	1.475579136830378	-0.2373505921125328	-0.08461028694908072	-0.7853429733489111	1.511360340249764	1.511360340249827	-0.1732777541618012	0.17136109582572	0.4360109568271838	0.1774001631618665	0.1249078980839116	0.01343127702429783	0.09069287145407542	-0.3286825014686945	0.0062633285067604	-0.01006867460422023	0.005074985205541573	-0.2203961078123724	-0.220396107812369	0.05212400355353573	0.002450630726920068	-0.02510573795613897	-0.0009291417133776688	-0.3668577131506736	0.04360398428843184	0.007453060287684042	-0.4330670274400459	-0.04637400565313396	0.002638458411245677	0.3774894853860556	-0.04099674832163119	-67.08359761430619	-14.91275234314193	7.725669690242997	7.444537229241343	-774.711724300932	56.53195317259273	1.34624392928681	0.2009625759138065	1.849932483311652	-5.61443409249142	0.1897517652921527	-0.3290216743217047	0.3274629593157897	-5.04039619396769	-5.040396193967712	1.050626900890815	0.06545754263438561	-0.9687933853506088	-0.1354107659713474	2.409787475392883e-08	3.318009477762128e-08	1.369639270243186e-07	1.816486489285959e-07	-1.575088802558314e-08	-3.413407025780042e-08	3.169813505920217e-07
